<svg width="15" height="17" viewBox="0 0 15 17" fill="none" xmlns="http://www.w3.org/2000/svg">
<path d="M12.5 16H2.5C1.672 16 1 15.328 1 14.5V9.5C1 8.672 1.672 8 2.5 8H12.5C13.328 8 14 8.672 14 9.5V14.5C14 15.328 13.328 16 12.5 16Z" stroke="#5F666D" stroke-width="1.5" stroke-linecap="round" stroke-linejoin="round"/>
<path d="M4 6V4.5C4 2.567 5.567 1 7.5 1C9.433 1 11 2.567 11 4.5V6" stroke="#5F666D" stroke-width="1.5" stroke-linecap="round" stroke-linejoin="round"/>
<path d="M7.5 13.5C8.32843 13.5 9 12.8284 9 12C9 11.1716 8.32843 10.5 7.5 10.5C6.67157 10.5 6 11.1716 6 12C6 12.8284 6.67157 13.5 7.5 13.5Z" stroke="#5F666D" stroke-width="1.5" stroke-linecap="round" stroke-linejoin="round"/>
</svg>
