<svg width="17" height="17" viewBox="0 0 17 17" fill="none" xmlns="http://www.w3.org/2000/svg">
<path d="M14 10.9142C14 10.649 14.1054 10.3946 14.2929 10.2071L15.2929 9.20711C15.6834 8.81658 15.6834 8.18342 15.2929 7.79289L14.2929 6.79289C14.1054 6.60536 14 6.351 14 6.08579V4C14 3.44772 13.5523 3 13 3H10.9142C10.649 3 10.3946 2.89464 10.2071 2.70711L9.20711 1.70711C8.81658 1.31658 8.18342 1.31658 7.79289 1.70711L6.79289 2.70711C6.60536 2.89464 6.351 3 6.08579 3H4C3.44772 3 3 3.44772 3 4V6.08579C3 6.351 2.89464 6.60536 2.70711 6.79289L1.70711 7.79289C1.31658 8.18342 1.31658 8.81658 1.70711 9.20711L2.70711 10.2071C2.89464 10.3946 3 10.649 3 10.9142V13C3 13.5523 3.44772 14 4 14H6.08579C6.351 14 6.60536 14.1054 6.79289 14.2929L7.79289 15.2929C8.18342 15.6834 8.81658 15.6834 9.20711 15.2929L10.2071 14.2929C10.3946 14.1054 10.649 14 10.9142 14H13C13.5523 14 14 13.5523 14 13V10.9142Z" stroke="#5F666D" stroke-width="1.5" stroke-linecap="round" stroke-linejoin="round"/>
</svg>
