<svg width="8" height="6" viewBox="0 0 8 6" fill="none" xmlns="http://www.w3.org/2000/svg">
<path d="M7.94306 0.269C7.90085 0.187965 7.83724 0.120046 7.75914 0.0726213C7.68104 0.025197 7.59143 8.04183e-05 7.50006 0H0.500061C0.408605 7.81986e-05 0.318923 0.0252388 0.240773 0.0727439C0.162623 0.120249 0.0989986 0.188279 0.0568246 0.26943C0.0146507 0.350581 -0.00445767 0.441746 0.00157876 0.533002C0.0076152 0.624258 0.0385654 0.712111 0.0910611 0.787L3.59106 5.787C3.6372 5.85261 3.69845 5.90616 3.76963 5.94313C3.84082 5.98009 3.91985 5.99939 4.00006 5.99939C4.08027 5.99939 4.15931 5.98009 4.23049 5.94313C4.30168 5.90616 4.36292 5.85261 4.40906 5.787L7.90906 0.787C7.9616 0.712043 7.99256 0.6241 7.99855 0.532758C8.00455 0.441417 7.98535 0.350182 7.94306 0.269Z" fill="#848D95"/>
</svg>
