<svg width="12" height="13" viewBox="0 0 12 13" fill="none" xmlns="http://www.w3.org/2000/svg">
<path d="M6 0.5C2.7 0.5 0 3.2 0 6.5C0 9.8 2.7 12.5 6 12.5C9.3 12.5 12 9.8 12 6.5C12 3.2 9.3 0.5 6 0.5ZM6 9.5C5.586 9.5 5.25 9.164 5.25 8.75C5.25 8.336 5.586 8 6 8C6.414 8 6.75 8.336 6.75 8.75C6.75 9.164 6.414 9.5 6 9.5ZM6.75 6.875C6.75 7.082 6.582 7.25 6.375 7.25H5.625C5.418 7.25 5.25 7.082 5.25 6.875V3.875C5.25 3.668 5.418 3.5 5.625 3.5H6.375C6.582 3.5 6.75 3.668 6.75 3.875V6.875Z" fill="#5F666D"/>
</svg>
