<svg width="12" height="12" viewBox="0 0 12 12" fill="none" xmlns="http://www.w3.org/2000/svg">
<path d="M11.794 4.10003L6.294 0.100025C6.20856 0.0379117 6.10564 0.00445557 6 0.00445557C5.89436 0.00445557 5.79144 0.0379117 5.706 0.100025L0.206 4.10003C0.142797 4.14597 0.09124 4.20608 0.0554655 4.27555C0.0196911 4.34501 0.0006946 4.42189 0 4.50003L0 10C0 10.5305 0.210714 11.0392 0.585786 11.4142C0.960859 11.7893 1.46957 12 2 12H5V8.50002C5 8.36742 5.05268 8.24024 5.14645 8.14647C5.24021 8.0527 5.36739 8.00003 5.5 8.00003H6.5C6.63261 8.00003 6.75979 8.0527 6.85355 8.14647C6.94732 8.24024 7 8.36742 7 8.50002V12H10C10.5304 12 11.0391 11.7893 11.4142 11.4142C11.7893 11.0392 12 10.5305 12 10V4.50003C11.9993 4.42189 11.9803 4.34501 11.9445 4.27555C11.9088 4.20608 11.8572 4.14597 11.794 4.10003Z" fill="#001FFF"/>
</svg>
